<svg version="1.1" id="Layer_1" xmlns="http://www.w3.org/2000/svg" xmlns:xlink="http://www.w3.org/1999/xlink" x="0px" y="0px"
	 width="100%" viewBox="0 0 1024 1024" enable-background="new 0 0 1024 1024" xml:space="preserve">
<path fill="#000000" opacity="1.000000" stroke="none" 
	d="
M482.051910,539.237061 
	C471.373352,538.834473 461.483917,537.166382 451.861237,533.477478 
	C425.508026,523.374756 414.758453,497.054047 420.287781,472.236053 
	C425.255890,449.937042 439.674866,435.226135 458.559967,424.057922 
	C463.272675,421.270905 468.162170,418.782776 472.967865,416.158691 
	C473.047333,412.930420 471.020630,410.725494 469.937378,408.178375 
	C462.721375,391.210541 460.700592,374.346008 469.647827,357.170258 
	C478.584259,340.015320 500.256439,331.164459 518.299683,333.104828 
	C529.095947,334.265839 539.287231,337.022400 546.940735,345.518982 
	C559.649170,359.627289 557.925049,380.830353 543.055786,393.657440 
	C536.406799,399.393188 528.568420,403.073792 520.721497,406.762939 
	C518.873352,407.631836 517.763000,407.238037 516.555481,405.555420 
	C512.023438,399.240112 512.112732,398.735565 518.033813,393.733673 
	C524.967346,387.876465 531.092896,381.243011 534.500488,372.695618 
	C538.158081,363.520996 538.642822,354.061371 531.698303,346.325684 
	C525.398376,339.308136 516.843811,337.878571 507.808594,340.689819 
	C497.495087,343.898743 492.730408,351.611267 491.240631,361.766449 
	C489.121063,376.214569 494.211090,388.925995 500.970947,401.196442 
	C513.765686,424.421539 531.090149,444.267029 548.213257,464.244843 
	C553.845459,470.816040 559.940125,476.988770 565.683594,483.467560 
	C568.092896,486.185272 569.951599,485.958069 572.092102,483.254364 
	C582.150635,470.549286 590.255615,456.928284 592.316895,440.460510 
	C593.126282,433.994781 591.295959,428.134460 587.158569,423.257904 
	C581.071350,416.083038 571.351807,415.637177 563.952576,421.684448 
	C558.102966,426.465271 555.067932,432.900421 553.458252,439.972687 
	C552.494995,444.204834 549.991943,444.244476 546.781860,443.720917 
	C542.431885,443.011414 544.369019,439.983612 544.929321,437.929382 
	C549.703430,420.427429 559.500549,407.726746 578.343384,404.197144 
	C583.750366,403.184326 589.342896,402.933014 594.697388,404.405670 
	C610.426208,408.731537 617.759766,422.417816 613.205933,438.298401 
	C608.282104,455.469055 597.599548,469.019623 585.951965,481.973297 
	C582.627686,485.670258 579.195007,489.269775 575.462952,493.290100 
	C581.738159,500.520050 588.678223,506.647583 596.137390,512.159790 
	C610.576538,522.830078 626.530518,529.261108 644.809998,528.733643 
	C653.095459,528.494629 660.911133,526.319946 668.328552,522.715088 
	C672.023987,520.919067 675.688538,520.098572 679.605469,521.702087 
	C679.557678,523.675964 678.122070,524.138977 677.084290,524.815369 
	C656.464844,538.255310 634.015747,545.062927 609.328491,542.193481 
	C589.518616,539.890991 572.583374,530.682434 557.686829,517.858887 
	C553.396667,514.165771 550.807739,513.709167 546.083374,517.218872 
	C527.289917,531.180725 506.157166,538.941223 482.051910,539.237061 
M484.161469,522.376343 
	C490.428955,524.356506 496.836212,525.165527 503.386871,524.516846 
	C516.749268,523.193542 528.930908,518.559998 540.170105,511.300476 
	C545.595703,507.796051 545.745361,507.150787 541.176147,502.438446 
	C518.867126,479.430573 497.829803,455.389679 480.893738,428.041626 
	C478.729950,424.547607 476.624512,424.701080 473.636139,426.797333 
	C456.417236,438.875977 447.705872,455.366699 449.536804,476.358612 
	C451.442078,498.203003 462.102631,514.275757 484.161469,522.376343 
z"/>
<path fill="#000000" opacity="1.000000" stroke="none" 
	d="
M247.000244,537.960083 
	C238.009964,537.871521 229.510696,538.209229 221.035553,537.407288 
	C219.252609,537.238525 217.132034,537.583679 216.935089,534.906799 
	C216.723007,532.024231 218.791733,531.942200 220.879669,531.635498 
	C237.605362,529.178406 241.594559,524.877625 241.645676,507.664764 
	C241.793106,458.028381 241.744507,408.391174 241.659103,358.754517 
	C241.634720,344.586060 237.566391,340.048492 223.696976,337.777374 
	C222.712479,337.616150 221.724197,337.436584 220.731064,337.378204 
	C218.811249,337.265442 216.910522,337.139313 216.920395,334.537598 
	C216.931808,331.530457 219.210724,331.767456 221.193863,331.703217 
	C231.342224,331.374451 241.489929,330.867828 251.640472,330.796906 
	C273.281158,330.645660 294.946106,330.094574 316.559265,330.871307 
	C342.656799,331.809235 367.835266,337.153473 389.762634,352.455963 
	C414.761536,369.901978 427.465973,394.271240 429.417297,424.554749 
	C429.966553,433.078918 428.826660,440.377075 422.879272,447.441376 
	C414.721619,457.130981 411.024719,469.530731 411.705017,481.912964 
	C412.348633,493.627502 406.372833,500.494415 399.007538,507.377991 
	C380.223206,524.933899 357.218018,532.834534 332.327362,536.272400 
	C307.791962,539.661133 283.111481,537.773438 258.491974,538.076538 
	C254.829102,538.121643 251.164200,538.004150 247.000244,537.960083 
M276.043091,528.718872 
	C291.175873,528.939697 306.343109,529.921936 321.397583,527.639648 
	C353.707306,522.741333 376.658478,505.885803 388.015289,474.661255 
	C395.663544,453.633209 396.019012,431.886688 392.656342,410.147278 
	C387.453735,376.512756 367.985504,354.720795 335.738129,344.098328 
	C316.468292,337.750732 296.617249,339.154388 276.844452,339.312073 
	C273.051056,339.342316 273.326843,342.081543 273.325653,344.605408 
	C273.297211,404.386261 273.271362,464.167084 273.270355,523.947937 
	C273.270325,525.699524 272.823456,527.751770 276.043091,528.718872 
z"/>
<path fill="#000000" opacity="1.000000" stroke="none" 
	d="
M734.026367,513.961792 
	C712.253113,487.684296 690.705017,461.681671 669.027222,435.522522 
	C663.021606,439.676208 659.042480,443.874084 659.214661,451.548157 
	C659.633362,470.203949 659.331238,488.875916 659.321045,507.541351 
	C659.320312,508.874573 659.302612,510.208679 659.342773,511.540863 
	C659.603455,520.176697 659.563904,519.988647 650.835754,522.033813 
	C643.416748,523.772278 636.277832,522.591187 629.111511,520.902832 
	C627.075684,520.423218 625.996460,519.343811 626.480713,516.946106 
	C628.880798,505.064056 627.398071,493.024109 627.748413,481.058105 
	C627.987305,472.899139 627.722107,464.726654 627.808411,456.561523 
	C627.860901,451.595764 629.694275,449.934723 634.267090,451.400208 
	C637.078796,452.301331 638.321533,450.655823 639.937134,449.449371 
	C657.491638,436.340179 672.557556,420.498596 688.117432,405.220825 
	C704.997009,388.647217 721.582031,371.773651 738.291870,355.027161 
	C739.115479,354.201721 739.979126,353.400024 740.694519,352.485779 
	C743.106567,349.403015 746.821838,346.575806 745.117981,342.074127 
	C743.526184,337.868744 739.337524,337.509430 735.442322,337.295715 
	C733.499207,337.189087 732.169373,336.498871 732.135498,334.410004 
	C732.099304,332.181305 733.631897,331.687256 735.493103,331.686981 
	C756.158081,331.684082 776.823120,331.683105 797.488098,331.670593 
	C799.410034,331.669403 800.819397,332.232239 800.684448,334.477936 
	C800.533325,336.992126 798.671204,337.169342 796.744141,337.269562 
	C785.102417,337.875214 774.073120,340.740479 763.786438,346.291504 
	C758.013794,349.406555 753.074890,353.657776 748.411865,358.170959 
	C730.094971,375.899567 711.931580,393.786774 693.585876,411.485229 
	C691.053162,413.928619 691.724731,415.563660 693.588928,417.754272 
	C710.214417,437.290833 726.717407,456.932159 743.418640,476.403503 
	C753.933960,488.662811 763.864441,501.439697 775.121277,513.045593 
	C782.679321,520.837952 790.424927,528.538818 801.920898,530.254150 
	C804.201599,530.594482 806.522095,530.668274 808.919800,530.873108 
	C810.311401,533.729126 809.273254,535.408142 806.438171,536.047729 
	C782.269226,541.500549 753.102051,538.854919 734.026367,513.961792 
z"/>
<path fill="#000000" opacity="1.000000" stroke="none" 
	d="
M629.000000,331.679138 
	C644.978821,331.689911 660.457642,331.700836 675.936462,331.716095 
	C677.267700,331.717407 678.598999,331.748871 679.930237,331.764069 
	C681.677917,331.783997 682.864258,332.558044 682.907959,334.386322 
	C682.950684,336.171478 681.901733,337.065857 680.123108,337.226593 
	C677.975159,337.420715 675.799072,337.533905 673.698425,337.980072 
	C664.533813,339.926483 661.204285,343.976807 660.271667,353.325897 
	C659.410889,361.954132 659.311279,370.587921 659.330200,379.239258 
	C659.361145,393.386444 659.269165,407.534241 659.379761,421.680634 
	C659.402466,424.587250 658.498108,426.673218 656.382690,428.660339 
	C649.716248,434.922211 643.608154,441.793793 636.218811,447.258514 
	C634.290955,448.684235 632.269836,451.043365 629.586243,449.698975 
	C627.064941,448.435822 627.911438,445.581879 627.903015,443.342255 
	C627.804626,417.212067 627.785889,391.081543 627.678894,364.951416 
	C627.664673,361.467834 627.421875,357.970001 627.039307,354.505920 
	C625.783630,343.136963 623.248291,340.398956 611.989014,337.971588 
	C610.694092,337.692474 609.367676,337.563080 608.062683,337.326538 
	C605.719299,336.901978 601.892334,338.478271 602.072144,334.239227 
	C602.234680,330.407776 605.836670,331.821930 608.029785,331.762146 
	C614.848877,331.576294 621.675964,331.685577 629.000000,331.679138 
z"/>
<path fill="#000000" opacity="1.000000" stroke="none" 
	d="
M580.801697,608.883057 
	C583.202148,591.080505 597.404297,582.897400 613.119141,589.825073 
	C621.368896,593.461853 626.165344,601.975952 624.732056,610.439209 
	C623.001587,620.657349 616.134277,627.418457 606.622681,628.268433 
	C592.237793,629.553894 584.076599,623.556152 580.801697,608.883057 
M609.999390,595.341064 
	C609.090210,594.938660 608.204468,594.468445 607.268127,594.144653 
	C600.587952,591.834351 593.492737,594.804077 590.555420,601.111572 
	C587.176392,608.367188 589.580811,617.016724 596.038208,620.835876 
	C602.336243,624.560852 609.741760,622.942261 614.094971,616.889282 
	C619.038086,610.016052 617.703369,601.845520 609.999390,595.341064 
z"/>
<path fill="#000000" opacity="1.000000" stroke="none" 
	d="
M373.603760,621.373413 
	C374.954437,623.387573 377.271362,624.387512 377.155914,627.307312 
	C372.914276,628.837097 369.355743,628.735168 366.628693,624.291382 
	C364.720184,621.181458 362.343903,618.359924 360.200562,615.392273 
	C359.032501,613.775085 357.593781,612.740906 355.532562,613.409607 
	C353.573547,614.045227 353.427612,615.813782 353.366699,617.497070 
	C353.282471,619.825684 353.259155,622.158508 353.286530,624.488647 
	C353.315521,626.958557 352.210602,628.156677 349.689087,628.171997 
	C347.223969,628.187012 345.926971,627.102234 345.924011,624.616821 
	C345.910950,613.628418 345.911835,602.640015 345.909363,591.651611 
	C345.908813,589.154297 347.257782,588.012939 349.657837,588.022095 
	C353.818146,588.037903 357.997925,587.850220 362.134308,588.184021 
	C369.749756,588.798706 373.835541,592.006836 375.031067,597.813416 
	C376.185242,603.419189 373.488800,608.167480 366.593567,612.092651 
	C368.881134,615.122009 371.135895,618.107971 373.603760,621.373413 
M364.884338,605.494324 
	C365.706909,604.280823 366.918671,603.171936 367.278503,601.833984 
	C368.321777,597.954773 366.415771,595.372009 362.810699,594.265503 
	C359.768677,593.331909 355.618317,591.559875 353.923157,595.090515 
	C352.317535,598.434692 351.915405,603.469116 354.252289,606.458191 
	C356.463135,609.286072 360.624634,607.733643 363.831665,606.169128 
	C363.979218,606.097229 364.113556,605.998230 364.884338,605.494324 
z"/>
<path fill="#000000" opacity="1.000000" stroke="none" 
	d="
M656.648071,603.762329 
	C653.859497,601.031189 654.325439,603.669006 654.304443,604.906677 
	C654.203003,610.898315 654.249268,616.892395 654.158569,622.884338 
	C654.127563,624.937866 654.780334,627.763062 651.575867,627.879517 
	C647.847534,628.015015 648.761292,624.848633 648.726501,622.732971 
	C648.556885,612.415527 648.518494,602.096008 648.427490,591.777222 
	C648.414124,590.272400 648.207336,588.638000 650.122375,588.092651 
	C652.241638,587.489136 653.577881,588.811401 654.788635,590.253784 
	C660.137878,596.626160 665.469116,603.013672 670.821289,609.383545 
	C672.077698,610.878845 673.390198,612.327087 675.741089,615.012695 
	C675.741089,607.974854 675.740906,602.417664 675.741272,596.860413 
	C675.741333,595.362122 675.703003,593.862366 675.754578,592.365845 
	C675.816650,590.567322 675.522766,588.423706 678.199341,588.272522 
	C681.028320,588.112732 681.324951,590.087219 681.318665,592.275330 
	C681.298523,599.267395 681.312500,606.259644 681.313110,613.251770 
	C681.313416,616.581360 681.388428,619.913391 681.282288,623.239624 
	C681.227905,624.945740 681.954102,627.198303 679.509155,627.875366 
	C677.558594,628.415527 676.571289,626.740967 675.488403,625.493286 
	C669.271729,618.330505 663.053101,611.169434 656.648071,603.762329 
z"/>
<path fill="#000000" opacity="1.000000" stroke="none" 
	d="
M468.187561,591.924255 
	C473.349579,603.783997 478.355530,615.296143 483.474640,627.068542 
	C478.817627,628.813171 475.866882,628.537781 474.141876,623.935913 
	C473.262329,621.589539 473.091614,618.089539 469.914215,617.680115 
	C465.340546,617.090942 460.526825,616.465454 456.115692,618.085938 
	C453.533112,619.034790 453.220306,622.383057 452.207031,624.792908 
	C450.914520,627.866821 449.025848,628.796326 445.805695,627.206543 
	C445.950317,623.033630 448.042053,619.559570 449.580383,615.979004 
	C453.057190,607.886658 456.799591,599.907959 460.459778,591.894897 
	C461.268768,590.123718 461.751099,587.925598 464.365448,587.980652 
	C466.665344,588.029053 467.200684,589.976440 468.187561,591.924255 
M460.731720,604.298218 
	C460.122253,606.783264 458.113312,608.895996 458.525421,611.792786 
	C461.992615,612.687439 465.145874,612.755310 468.401215,610.970459 
	C467.572632,606.742737 465.899231,603.051453 463.596008,598.956665 
	C462.569183,600.842896 461.802124,602.251892 460.731720,604.298218 
z"/>
<path fill="#000000" opacity="1.000000" stroke="none" 
	d="
M399.916321,591.372681 
	C400.227997,588.568481 401.830139,588.008606 403.857178,588.007019 
	C409.515533,588.002563 415.174103,587.959656 420.832092,588.002319 
	C422.892487,588.017883 425.104156,588.206238 424.946533,591.075500 
	C424.795044,593.832764 422.487610,593.285095 420.772858,593.347351 
	C418.113739,593.443970 415.426697,593.579773 412.790253,593.314148 
	C408.245422,592.856262 407.177155,594.943359 407.168671,599.149109 
	C407.160126,603.386292 408.298798,605.391785 412.811249,604.978210 
	C415.103973,604.768066 417.461212,605.096802 419.774139,605.331238 
	C421.251221,605.480957 422.201721,606.326660 422.124481,607.987610 
	C422.042725,609.745483 420.863190,610.193176 419.412933,610.225403 
	C416.751251,610.284668 414.083557,610.387634 411.426880,610.273682 
	C408.463074,610.146729 407.370209,611.356201 407.252930,614.363525 
	C406.928131,622.692505 406.807648,622.684021 415.122345,622.694275 
	C417.452057,622.697144 419.782288,622.703125 422.111145,622.757507 
	C423.731750,622.795410 425.102783,623.203613 425.150360,625.231628 
	C425.195557,627.155334 424.051086,627.989136 422.357422,628.005859 
	C415.869263,628.069946 409.378601,628.128052 402.892151,628.009827 
	C399.832062,627.954224 399.821899,625.513489 399.824158,623.285217 
	C399.834778,612.800598 399.862122,602.315918 399.916321,591.372681 
z"/>
<path fill="#000000" opacity="1.000000" stroke="none" 
	d="
M715.747131,594.511353 
	C712.168457,597.771851 713.063843,600.304321 716.593079,602.186646 
	C719.520874,603.748291 722.638428,604.950073 725.639648,606.378967 
	C731.414734,609.128418 733.748840,612.710754 733.251709,617.935303 
	C732.787720,622.811157 729.636414,626.489014 724.020691,627.790771 
	C718.573669,629.053528 713.090149,628.846741 708.011658,626.062805 
	C706.432800,625.197327 704.504700,624.277466 705.873657,621.888672 
	C706.961121,619.991272 708.522034,619.584473 710.526367,620.616455 
	C713.203003,621.994507 715.955688,623.166626 719.095520,622.828735 
	C722.181091,622.496643 724.737488,621.083069 725.375977,618.024719 
	C725.962708,615.213989 723.807434,613.390442 721.464844,612.273865 
	C718.770020,610.989380 715.893738,610.090698 713.167358,608.866150 
	C708.541687,606.788513 705.544739,603.449219 705.880920,598.067505 
	C706.192261,593.082458 710.036133,589.047546 715.497375,587.999939 
	C720.190430,587.099731 724.779175,587.749390 729.142517,589.739563 
	C730.738525,590.467529 732.228088,591.345642 731.130066,593.495483 
	C730.250183,595.218079 728.898865,595.952393 727.020081,595.077332 
	C723.456909,593.417664 719.876343,592.239685 715.747131,594.511353 
z"/>
<path fill="#000000" opacity="1.000000" stroke="none" 
	d="
M319.789948,595.880493 
	C318.020050,595.387329 316.632812,594.833191 315.229889,594.322205 
	C308.759125,591.965210 301.838562,593.859985 298.196594,598.973267 
	C294.263733,604.494934 294.241333,612.128235 298.143219,617.202515 
	C302.367767,622.696411 308.820343,624.301819 315.655762,621.546570 
	C316.581635,621.173401 317.488464,620.751465 318.395233,620.332886 
	C320.322754,619.442932 321.592529,620.180298 322.419128,621.964172 
	C323.235748,623.726562 322.278107,624.711792 320.899200,625.643799 
	C314.989594,629.638306 302.746185,629.210999 296.110199,624.724182 
	C289.020203,619.930237 285.987213,612.135254 287.795166,603.353760 
	C289.357971,595.762939 296.063965,589.220581 304.388428,587.990051 
	C310.850433,587.034790 317.347107,587.173523 322.738831,591.790466 
	C322.877808,593.947876 321.621155,594.958618 319.789948,595.880493 
z"/>
<path fill="#000000" opacity="1.000000" stroke="none" 
	d="
M502.514374,593.393555 
	C500.181641,593.076050 497.200958,594.229126 497.353394,590.718933 
	C497.487823,587.622925 500.156158,587.955566 502.284760,587.955017 
	C509.436554,587.953125 516.588989,587.971130 523.739746,588.077576 
	C525.526184,588.104126 527.757935,588.067505 527.851624,590.631897 
	C527.963379,593.689636 525.502075,593.244080 523.560242,593.330566 
	C516.281494,593.655151 516.267761,593.650146 516.246033,600.904236 
	C516.224060,608.223999 516.205872,615.544067 516.242004,622.863708 
	C516.255554,625.619629 515.852539,627.873474 512.347046,627.944885 
	C508.417419,628.024902 508.834015,625.204468 508.815948,622.747437 
	C508.758514,614.928833 508.473480,607.095032 508.862152,599.296326 
	C509.098541,594.553162 507.344482,592.904724 502.514374,593.393555 
z"/>
<path fill="#000000" opacity="1.000000" stroke="none" 
	d="
M552.888062,588.054626 
	C556.135071,587.804016 557.508545,588.738220 557.448792,591.957336 
	C557.254883,602.406738 557.295898,612.861328 557.337219,623.313538 
	C557.348389,626.140625 556.921692,628.205994 553.377441,628.161987 
	C549.976257,628.119690 549.800232,625.965881 549.804993,623.462219 
	C549.824829,613.175537 549.810852,602.888855 549.825195,592.602173 
	C549.827942,590.598755 549.654236,588.449951 552.888062,588.054626 
z"/>
</svg>